Walk_Norm15
version=1
nRows=28
nColumns=37
inDegrees=yes
endheader
time	ground_force2_vx	ground_force2_vy	ground_force2_vz	ground_force2_px	ground_force2_py	ground_force2_pz	ground_torque2_x	ground_torque2_y	ground_torque2_z	ground_force1_vx	ground_force1_vy	ground_force1_vz	ground_force1_px	ground_force1_py	ground_force1_pz	ground_torque1_x	ground_torque1_y	ground_torque1_z	ground_force4_vx	ground_force4_vy	ground_force4_vz	ground_force4_px	ground_force4_py	ground_force4_pz	ground_torque4_x	ground_torque4_y	ground_torque4_z	ground_force3_vx	ground_force3_vy	ground_force3_vz	ground_force3_px	ground_force3_py	ground_force3_pz	ground_torque3_x	ground_torque3_y	ground_torque3_z
1.325000	-15.484998	707.630798	129.962173	0.283505	0.000107	0.440187	-0.000080	0.050065	-0.000026	-0.000000	-0.000000	0.000000	0.198840	0.000056	-0.300407	0.000000	0.000000	0.000000	-0.000000	-0.000000	0.000000	-0.199669	-0.000131	0.305422	0.000000	0.000000	0.000000	-6.037718	82.881828	-29.853630	0.207016	0.000024	1.027912	-0.000301	-0.257571	0.000454	
1.326000	-15.587305	715.066895	129.428726	0.283364	0.000106	0.439881	-0.000208	0.140381	-0.000053	-0.000000	-0.000000	0.000000	0.198840	0.000056	-0.300407	0.000000	0.000000	0.000000	-0.000000	-0.000000	0.000000	-0.199669	-0.000131	0.305422	0.000000	0.000000	0.000000	-6.221973	78.237282	-27.890600	0.207890	0.000029	1.031297	-0.000383	-0.323439	0.000569	
1.327000	-15.409419	717.900696	130.398560	0.283639	0.000107	0.439957	-0.000316	0.198575	-0.000095	-0.000000	-0.000000	0.000000	0.198840	0.000056	-0.300407	0.000000	0.000000	0.000000	-0.000000	-0.000000	0.000000	-0.199669	-0.000131	0.305422	0.000000	0.000000	0.000000	-5.510170	73.591385	-26.105450	0.206939	0.000029	1.030815	-0.000385	-0.327616	0.000577	
1.328000	-15.951982	723.919678	129.956436	0.283704	0.000107	0.439679	-0.000298	0.194622	-0.000088	-0.000000	-0.000000	0.000000	0.198840	0.000056	-0.300407	0.000000	0.000000	0.000000	-0.000000	-0.000000	0.000000	-0.199669	-0.000131	0.305422	0.000000	0.000000	0.000000	-5.336948	67.876411	-22.630060	0.207928	0.000023	1.027826	-0.000319	-0.272823	0.000481	
1.329000	-15.245131	727.462341	130.658066	0.283508	0.000107	0.439625	-0.000774	0.502420	-0.000244	-0.000000	-0.000000	0.000000	0.198840	0.000056	-0.300407	0.000000	0.000000	0.000000	-0.000000	-0.000000	0.000000	-0.199669	-0.000131	0.305422	0.000000	0.000000	0.000000	-4.268456	61.799107	-21.286737	0.206229	0.000027	1.029207	-0.000342	-0.291491	0.000514	
1.330000	-15.872181	735.606689	131.629364	0.283625	0.000106	0.438482	-0.000490	0.323458	-0.000156	-0.000000	-0.000000	0.000000	0.198840	0.000056	-0.300407	0.000000	0.000000	0.000000	-0.000000	-0.000000	0.000000	-0.199669	-0.000131	0.305422	0.000000	0.000000	0.000000	-4.269817	60.371708	-19.684824	0.209142	0.000014	1.023278	-0.000199	-0.168756	0.000298	
1.331000	-15.970884	740.918152	131.185333	0.283384	0.000106	0.438352	-0.000904	0.603746	-0.000283	-0.000000	-0.000000	0.000000	0.198840	0.000056	-0.300407	0.000000	0.000000	0.000000	-0.000000	-0.000000	0.000000	-0.199669	-0.000131	0.305422	0.000000	0.000000	0.000000	-3.563269	51.079025	-17.091795	0.207326	0.000014	1.022197	-0.000375	-0.319050	0.000562	
1.332000	-15.977183	747.292664	131.800827	0.283218	0.000105	0.437383	-0.001117	0.739522	-0.000354	-0.000000	-0.000000	0.000000	0.198840	0.000056	-0.300407	0.000000	0.000000	0.000000	-0.000000	-0.000000	0.000000	-0.199669	-0.000131	0.305422	0.000000	0.000000	0.000000	-2.666025	51.796059	-15.404971	0.208018	0.000018	1.025313	-0.000383	-0.329998	0.000581	
1.333000	-16.511169	751.187561	132.420242	0.283322	0.000105	0.437336	-0.000775	0.494699	-0.000216	-0.000000	-0.000000	0.000000	0.198840	0.000056	-0.300407	0.000000	0.000000	0.000000	-0.000000	-0.000000	0.000000	-0.199669	-0.000131	0.305422	0.000000	0.000000	0.000000	-2.761086	46.793858	-13.441329	0.208818	0.000010	1.020810	-0.000443	-0.379823	0.000668	
1.334000	-16.963669	756.498474	132.066406	0.283460	0.000105	0.436982	-0.001000	0.674335	-0.000332	-0.000000	-0.000000	0.000000	0.198840	0.000056	-0.300407	0.000000	0.000000	0.000000	-0.000000	-0.000000	0.000000	-0.199669	-0.000131	0.305422	0.000000	0.000000	0.000000	-2.497413	42.147701	-12.100371	0.208105	0.000016	1.024170	-0.000301	-0.257806	0.000454	
1.335000	-17.317078	758.977234	132.950745	0.283618	0.000105	0.437011	-0.000801	0.535087	-0.000264	-0.000000	-0.000000	0.000000	0.198840	0.000056	-0.300407	0.000000	0.000000	0.000000	-0.000000	-0.000000	0.000000	-0.199669	-0.000131	0.305422	0.000000	0.000000	0.000000	-1.691892	41.076756	-10.588096	0.202916	0.000015	1.019978	-0.000431	-0.371087	0.000653	
1.336000	-18.211321	765.704346	133.217102	0.283324	0.000105	0.436016	-0.000885	0.582429	-0.000273	-0.000000	-0.000000	0.000000	0.198840	0.000056	-0.300407	0.000000	0.000000	0.000000	-0.000000	-0.000000	0.000000	-0.199669	-0.000131	0.305422	0.000000	0.000000	0.000000	-1.695798	37.503571	-9.248974	0.205315	0.000025	1.027158	-0.000461	-0.392960	0.000692	
1.337000	-18.835981	768.890503	133.218704	0.283636	0.000105	0.435868	-0.000828	0.535962	-0.000263	-0.000000	-0.000000	0.000000	0.198840	0.000056	-0.300407	0.000000	0.000000	0.000000	-0.000000	-0.000000	0.000000	-0.199669	-0.000131	0.305422	0.000000	0.000000	0.000000	-0.980819	35.716686	-8.268555	0.203206	0.000029	1.028125	-0.000394	-0.337109	0.000594	
1.338000	-19.283363	773.493652	133.660568	0.283387	0.000105	0.435826	-0.000576	0.383266	-0.000205	-0.000000	-0.000000	0.000000	0.198840	0.000056	-0.300407	0.000000	0.000000	0.000000	-0.000000	-0.000000	0.000000	-0.199669	-0.000131	0.305422	0.000000	0.000000	0.000000	-0.357827	31.785686	-6.662356	0.202657	0.000025	1.025802	-0.000323	-0.276297	0.000486	
1.339000	-19.733686	777.033997	133.219223	0.283660	0.000105	0.435847	-0.000768	0.509330	-0.000234	-0.000000	-0.000000	0.000000	0.198840	0.000056	-0.300407	0.000000	0.000000	0.000000	-0.000000	-0.000000	0.000000	-0.199669	-0.000131	0.305422	0.000000	0.000000	0.000000	-0.450145	29.284796	-5.591671	0.205879	0.000020	1.024560	-0.000424	-0.362743	0.000639	
1.340000	-19.911175	778.804565	133.661118	0.283706	0.000105	0.436170	-0.000871	0.568544	-0.000266	-0.000000	-0.000000	0.000000	0.198840	0.000056	-0.300407	0.000000	0.000000	0.000000	-0.000000	-0.000000	0.000000	-0.199669	-0.000131	0.305422	0.000000	0.000000	0.000000	-0.006939	24.995043	-4.784508	0.207000	0.000005	1.016947	-0.000214	-0.182365	0.000321	
1.341000	-21.074268	785.531006	133.310196	0.283239	0.000104	0.435040	-0.000726	0.473846	-0.000241	-0.000000	-0.000000	0.000000	0.198840	0.000056	-0.300407	0.000000	0.000000	0.000000	-0.000000	-0.000000	0.000000	-0.199669	-0.000131	0.305422	0.000000	0.000000	0.000000	0.259544	22.850817	-3.981085	0.205384	0.000024	1.026897	-0.000231	-0.197048	0.000347	
1.342000	-21.784107	787.654846	133.666275	0.283472	0.000104	0.435021	-0.000570	0.359135	-0.000164	-0.000000	-0.000000	0.000000	0.198840	0.000056	-0.300407	0.000000	0.000000	0.000000	-0.000000	-0.000000	0.000000	-0.199669	-0.000131	0.305422	0.000000	0.000000	0.000000	0.708293	23.210505	-2.471258	0.206953	0.000023	1.027382	-0.000325	-0.279028	0.000491	
1.343000	-21.879576	792.612427	133.752670	0.283415	0.000104	0.434591	-0.000696	0.449969	-0.000216	-0.000000	-0.000000	0.000000	0.198840	0.000056	-0.300407	0.000000	0.000000	0.000000	-0.000000	-0.000000	0.000000	-0.199669	-0.000131	0.305422	0.000000	0.000000	0.000000	0.975260	21.424459	-1.313043	0.206894	0.000004	1.016359	-0.000304	-0.259417	0.000457	
1.344000	-22.595886	795.444031	133.047897	0.283441	0.000104	0.434513	-0.000832	0.542278	-0.000263	-0.000000	-0.000000	0.000000	0.198840	0.000056	-0.300407	0.000000	0.000000	0.000000	-0.000000	-0.000000	0.000000	-0.199669	-0.000131	0.305422	0.000000	0.000000	0.000000	1.598780	18.205750	-1.307499	0.206763	0.000008	1.018858	-0.000307	-0.263152	0.000463	
1.345000	-22.956364	799.338806	132.959412	0.283181	0.000103	0.433933	-0.000681	0.438737	-0.000205	-0.000000	-0.000000	0.000000	0.198840	0.000056	-0.300407	0.000000	0.000000	0.000000	-0.000000	-0.000000	0.000000	-0.199669	-0.000131	0.305422	0.000000	0.000000	0.000000	1.598600	17.850386	-0.062895	0.206750	0.000043	1.038317	-0.000205	-0.174802	0.000308	
1.346000	-23.586895	802.524414	131.812134	0.283305	0.000103	0.433856	-0.000892	0.583864	-0.000270	-0.000000	-0.000000	0.000000	0.198840	0.000056	-0.300407	0.000000	0.000000	0.000000	-0.000000	-0.000000	0.000000	-0.199669	-0.000131	0.305422	0.000000	0.000000	0.000000	1.505298	14.632980	0.209350	0.191952	0.000052	1.033905	-0.000117	-0.100437	0.000177	
1.347000	-24.207195	804.294312	132.256302	0.283349	0.000104	0.433954	-0.000588	0.385560	-0.000187	-0.000000	-0.000000	0.000000	0.198840	0.000056	-0.300407	0.000000	0.000000	0.000000	-0.000000	-0.000000	0.000000	-0.199669	-0.000131	0.305422	0.000000	0.000000	0.000000	1.416190	14.991419	0.653014	0.201828	0.000042	1.034488	-0.000158	-0.134877	0.000237	
1.348000	-24.218544	808.897400	131.370285	0.283155	0.000103	0.433542	-0.000894	0.602765	-0.000305	-0.000000	-0.000000	0.000000	0.198840	0.000056	-0.300407	0.000000	0.000000	0.000000	-0.000000	-0.000000	0.000000	-0.199669	-0.000131	0.305422	0.000000	0.000000	0.000000	1.953198	14.277407	1.631580	0.209019	0.000020	1.026958	-0.000219	-0.187398	0.000330	
1.349000	-25.283613	809.249756	131.022064	0.283165	0.000103	0.433866	-0.000729	0.483986	-0.000226	-0.000000	-0.000000	0.000000	0.198840	0.000056	-0.300407	0.000000	0.000000	0.000000	-0.000000	-0.000000	0.000000	-0.199669	-0.000131	0.305422	0.000000	0.000000	0.000000	2.490488	13.919697	1.898674	0.203937	0.000019	1.022905	-0.000216	-0.186066	0.000328	
1.350000	-25.113110	810.666077	130.136688	0.283373	0.000103	0.433638	-0.000889	0.592829	-0.000287	-0.000000	-0.000000	0.000000	0.198840	0.000056	-0.300407	0.000000	0.000000	0.000000	-0.000000	-0.000000	0.000000	-0.199669	-0.000131	0.305422	0.000000	0.000000	0.000000	2.575538	9.986664	1.994433	0.223879	0.000011	1.031552	-0.000220	-0.188016	0.000331	
1.351000	-24.945005	814.915527	129.603455	0.283040	0.000103	0.432964	-0.001071	0.717431	-0.000369	-0.000000	-0.000000	0.000000	0.198840	0.000056	-0.300407	0.000000	0.000000	0.000000	-0.000000	-0.000000	0.000000	-0.199669	-0.000131	0.305422	0.000000	0.000000	0.000000	-0.000000	-0.000000	0.000000	0.207643	0.000077	1.058390	0.000000	0.000000	0.000000	
1.352000	-26.013458	816.330078	128.901169	0.283249	0.000103	0.433063	-0.000981	0.644296	-0.000324	-0.000000	-0.000000	0.000000	0.198840	0.000056	-0.300407	0.000000	0.000000	0.000000	-0.000000	-0.000000	0.000000	-0.199669	-0.000131	0.305422	0.000000	0.000000	0.000000	2.306447	9.630831	2.794811	0.202294	0.000076	1.054026	-0.000160	-0.138078	0.000243	
